<svg xmlns="http://www.w3.org/2000/svg" version="1.1" xmlns:xlink="http://www.w3.org/1999/xlink" xmlns:svgjs="http://svgjs.com/svgjs" width="1440" height="560" preserveAspectRatio="none" viewBox="0 0 1440 560"><g mask="url(&quot;#SvgjsMask1008&quot;)" fill="none"><rect width="1440" height="560" x="0" y="0" fill="rgba(113, 31, 169, 1)"></rect><path d="M-37.7 379.66L-37.7 379.66" stroke="rgba(160, 70, 222, 1)" stroke-width="1.5"></path><path d="M-37.7 379.66L-77.08 500.8" stroke="rgba(160, 70, 222, 1)" stroke-width="1.5"></path><path d="M-37.7 379.66L89.71 348.82" stroke="rgba(160, 70, 222, 1)" stroke-width="1.5"></path><path d="M-37.7 379.66L192.63 392.32" stroke="rgba(160, 70, 222, 1)" stroke-width="1.5"></path><path d="M-37.7 379.66L235.33 515.71" stroke="rgba(160, 70, 222, 1)" stroke-width="1.5"></path><path d="M-77.08 500.8L-77.08 500.8" stroke="rgba(160, 70, 222, 1)" stroke-width="1.5"></path><path d="M-77.08 500.8L89.71 348.82" stroke="rgba(160, 70, 222, 1)" stroke-width="1.5"></path><path d="M89.71 348.82L89.71 348.82" stroke="rgba(160, 70, 222, 1)" stroke-width="1.5"></path><path d="M89.71 348.82L192.63 392.32" stroke="rgba(160, 70, 222, 1)" stroke-width="1.5"></path><path d="M89.71 348.82L235.33 515.71" stroke="rgba(160, 70, 222, 1)" stroke-width="1.5"></path><path d="M89.55 711.02L89.55 711.02" stroke="rgba(160, 70, 222, 1)" stroke-width="1.5"></path><path d="M89.55 711.02L227.36 700.69" stroke="rgba(160, 70, 222, 1)" stroke-width="1.5"></path><path d="M89.55 711.02L235.33 515.71" stroke="rgba(160, 70, 222, 1)" stroke-width="1.5"></path><path d="M89.55 711.02L-77.08 500.8" stroke="rgba(160, 70, 222, 1)" stroke-width="1.5"></path><path d="M192.63 392.32L192.63 392.32" stroke="rgba(160, 70, 222, 1)" stroke-width="1.5"></path><path d="M192.63 392.32L235.33 515.71" stroke="rgba(160, 70, 222, 1)" stroke-width="1.5"></path><path d="M192.63 392.32L409.69 349.99" stroke="rgba(160, 70, 222, 1)" stroke-width="1.5"></path><path d="M192.63 392.32L-77.08 500.8" stroke="rgba(160, 70, 222, 1)" stroke-width="1.5"></path><path d="M235.33 515.71L235.33 515.71" stroke="rgba(160, 70, 222, 1)" stroke-width="1.5"></path><path d="M235.33 515.71L227.36 700.69" stroke="rgba(160, 70, 222, 1)" stroke-width="1.5"></path><path d="M235.33 515.71L409.69 349.99" stroke="rgba(160, 70, 222, 1)" stroke-width="1.5"></path><path d="M235.33 515.71L392.19 700.59" stroke="rgba(160, 70, 222, 1)" stroke-width="1.5"></path><path d="M227.36 700.69L227.36 700.69" stroke="rgba(160, 70, 222, 1)" stroke-width="1.5"></path><path d="M227.36 700.69L392.19 700.59" stroke="rgba(160, 70, 222, 1)" stroke-width="1.5"></path><path d="M227.36 700.69L499.65 562.4" stroke="rgba(160, 70, 222, 1)" stroke-width="1.5"></path><path d="M227.36 700.69L192.63 392.32" stroke="rgba(160, 70, 222, 1)" stroke-width="1.5"></path><path d="M409.69 349.99L409.69 349.99" stroke="rgba(160, 70, 222, 1)" stroke-width="1.5"></path><path d="M409.69 349.99L558.74 364.87" stroke="rgba(160, 70, 222, 1)" stroke-width="1.5"></path><path d="M409.69 349.99L499.65 562.4" stroke="rgba(160, 70, 222, 1)" stroke-width="1.5"></path><path d="M392.19 700.59L392.19 700.59" stroke="rgba(160, 70, 222, 1)" stroke-width="1.5"></path><path d="M392.19 700.59L499.65 562.4" stroke="rgba(160, 70, 222, 1)" stroke-width="1.5"></path><path d="M558.74 364.87L558.74 364.87" stroke="rgba(160, 70, 222, 1)" stroke-width="1.5"></path><path d="M558.74 364.87L645.43 348.78" stroke="rgba(160, 70, 222, 1)" stroke-width="1.5"></path><path d="M558.74 364.87L669.48 226.77" stroke="rgba(160, 70, 222, 1)" stroke-width="1.5"></path><path d="M499.65 562.4L499.65 562.4" stroke="rgba(160, 70, 222, 1)" stroke-width="1.5"></path><path d="M499.65 562.4L650.54 698.65" stroke="rgba(160, 70, 222, 1)" stroke-width="1.5"></path><path d="M499.65 562.4L558.74 364.87" stroke="rgba(160, 70, 222, 1)" stroke-width="1.5"></path><path d="M499.65 562.4L703.01 489.93" stroke="rgba(160, 70, 222, 1)" stroke-width="1.5"></path><path d="M669.48 226.77L669.48 226.77" stroke="rgba(160, 70, 222, 1)" stroke-width="1.5"></path><path d="M669.48 226.77L645.43 348.78" stroke="rgba(160, 70, 222, 1)" stroke-width="1.5"></path><path d="M669.48 226.77L841.65 217.89" stroke="rgba(160, 70, 222, 1)" stroke-width="1.5"></path><path d="M669.48 226.77L829.81 396.12" stroke="rgba(160, 70, 222, 1)" stroke-width="1.5"></path><path d="M645.43 348.78L645.43 348.78" stroke="rgba(160, 70, 222, 1)" stroke-width="1.5"></path><path d="M645.43 348.78L703.01 489.93" stroke="rgba(160, 70, 222, 1)" stroke-width="1.5"></path><path d="M645.43 348.78L829.81 396.12" stroke="rgba(160, 70, 222, 1)" stroke-width="1.5"></path><path d="M645.43 348.78L409.69 349.99" stroke="rgba(160, 70, 222, 1)" stroke-width="1.5"></path><path d="M645.43 348.78L841.65 217.89" stroke="rgba(160, 70, 222, 1)" stroke-width="1.5"></path><path d="M703.01 489.93L703.01 489.93" stroke="rgba(160, 70, 222, 1)" stroke-width="1.5"></path><path d="M703.01 489.93L800.63 548.32" stroke="rgba(160, 70, 222, 1)" stroke-width="1.5"></path><path d="M703.01 489.93L829.81 396.12" stroke="rgba(160, 70, 222, 1)" stroke-width="1.5"></path><path d="M650.54 698.65L650.54 698.65" stroke="rgba(160, 70, 222, 1)" stroke-width="1.5"></path><path d="M650.54 698.65L800.63 548.32" stroke="rgba(160, 70, 222, 1)" stroke-width="1.5"></path><path d="M841.65 217.89L841.65 217.89" stroke="rgba(160, 70, 222, 1)" stroke-width="1.5"></path><path d="M841.65 217.89L1012.1 233.04" stroke="rgba(160, 70, 222, 1)" stroke-width="1.5"></path><path d="M841.65 217.89L829.81 396.12" stroke="rgba(160, 70, 222, 1)" stroke-width="1.5"></path><path d="M829.81 396.12L829.81 396.12" stroke="rgba(160, 70, 222, 1)" stroke-width="1.5"></path><path d="M829.81 396.12L800.63 548.32" stroke="rgba(160, 70, 222, 1)" stroke-width="1.5"></path><path d="M829.81 396.12L997.59 351.5" stroke="rgba(160, 70, 222, 1)" stroke-width="1.5"></path><path d="M829.81 396.12L966.36 534.42" stroke="rgba(160, 70, 222, 1)" stroke-width="1.5"></path><path d="M800.63 548.32L800.63 548.32" stroke="rgba(160, 70, 222, 1)" stroke-width="1.5"></path><path d="M800.63 548.32L966.36 534.42" stroke="rgba(160, 70, 222, 1)" stroke-width="1.5"></path><path d="M800.63 548.32L1008.74 685.08" stroke="rgba(160, 70, 222, 1)" stroke-width="1.5"></path><path d="M800.63 548.32L645.43 348.78" stroke="rgba(160, 70, 222, 1)" stroke-width="1.5"></path><path d="M977.07 -71.36L977.07 -71.36" stroke="rgba(160, 70, 222, 1)" stroke-width="1.5"></path><path d="M977.07 -71.36L1087.87 -40.35" stroke="rgba(160, 70, 222, 1)" stroke-width="1.5"></path><path d="M1011.31 112.45L1011.31 112.45" stroke="rgba(160, 70, 222, 1)" stroke-width="1.5"></path><path d="M1011.31 112.45L1012.1 233.04" stroke="rgba(160, 70, 222, 1)" stroke-width="1.5"></path><path d="M1011.31 112.45L1094.55 226.77" stroke="rgba(160, 70, 222, 1)" stroke-width="1.5"></path><path d="M1011.31 112.45L1087.87 -40.35" stroke="rgba(160, 70, 222, 1)" stroke-width="1.5"></path><path d="M1011.31 112.45L977.07 -71.36" stroke="rgba(160, 70, 222, 1)" stroke-width="1.5"></path><path d="M1011.31 112.45L841.65 217.89" stroke="rgba(160, 70, 222, 1)" stroke-width="1.5"></path><path d="M1012.1 233.04L1012.1 233.04" stroke="rgba(160, 70, 222, 1)" stroke-width="1.5"></path><path d="M1012.1 233.04L1094.55 226.77" stroke="rgba(160, 70, 222, 1)" stroke-width="1.5"></path><path d="M1012.1 233.04L997.59 351.5" stroke="rgba(160, 70, 222, 1)" stroke-width="1.5"></path><path d="M997.59 351.5L997.59 351.5" stroke="rgba(160, 70, 222, 1)" stroke-width="1.5"></path><path d="M997.59 351.5L1113.73 360.11" stroke="rgba(160, 70, 222, 1)" stroke-width="1.5"></path><path d="M966.36 534.42L966.36 534.42" stroke="rgba(160, 70, 222, 1)" stroke-width="1.5"></path><path d="M966.36 534.42L1008.74 685.08" stroke="rgba(160, 70, 222, 1)" stroke-width="1.5"></path><path d="M1008.74 685.08L1008.74 685.08" stroke="rgba(160, 70, 222, 1)" stroke-width="1.5"></path><path d="M1008.74 685.08L1131.9 498.32" stroke="rgba(160, 70, 222, 1)" stroke-width="1.5"></path><path d="M1008.74 685.08L1257.48 666.36" stroke="rgba(160, 70, 222, 1)" stroke-width="1.5"></path><path d="M1008.74 685.08L1277.27 528.6" stroke="rgba(160, 70, 222, 1)" stroke-width="1.5"></path><path d="M1087.87 -40.35L1087.87 -40.35" stroke="rgba(160, 70, 222, 1)" stroke-width="1.5"></path><path d="M1087.87 -40.35L1288.03 -49.92" stroke="rgba(160, 70, 222, 1)" stroke-width="1.5"></path><path d="M1087.87 -40.35L1275.5 78.5" stroke="rgba(160, 70, 222, 1)" stroke-width="1.5"></path><path d="M1087.87 -40.35L1094.55 226.77" stroke="rgba(160, 70, 222, 1)" stroke-width="1.5"></path><path d="M1087.87 -40.35L1012.1 233.04" stroke="rgba(160, 70, 222, 1)" stroke-width="1.5"></path><path d="M1094.55 226.77L1094.55 226.77" stroke="rgba(160, 70, 222, 1)" stroke-width="1.5"></path><path d="M1094.55 226.77L1113.73 360.11" stroke="rgba(160, 70, 222, 1)" stroke-width="1.5"></path><path d="M1113.73 360.11L1113.73 360.11" stroke="rgba(160, 70, 222, 1)" stroke-width="1.5"></path><path d="M1131.9 498.32L1131.9 498.32" stroke="rgba(160, 70, 222, 1)" stroke-width="1.5"></path><path d="M1131.9 498.32L1113.73 360.11" stroke="rgba(160, 70, 222, 1)" stroke-width="1.5"></path><path d="M1131.9 498.32L1277.27 528.6" stroke="rgba(160, 70, 222, 1)" stroke-width="1.5"></path><path d="M1131.9 498.32L966.36 534.42" stroke="rgba(160, 70, 222, 1)" stroke-width="1.5"></path><path d="M1131.9 498.32L1274.43 378.75" stroke="rgba(160, 70, 222, 1)" stroke-width="1.5"></path><path d="M1288.03 -49.92L1288.03 -49.92" stroke="rgba(160, 70, 222, 1)" stroke-width="1.5"></path><path d="M1288.03 -49.92L1393.96 -54.13" stroke="rgba(160, 70, 222, 1)" stroke-width="1.5"></path><path d="M1288.03 -49.92L1275.5 78.5" stroke="rgba(160, 70, 222, 1)" stroke-width="1.5"></path><path d="M1288.03 -49.92L1454.83 42.36" stroke="rgba(160, 70, 222, 1)" stroke-width="1.5"></path><path d="M1275.5 78.5L1275.5 78.5" stroke="rgba(160, 70, 222, 1)" stroke-width="1.5"></path><path d="M1275.5 78.5L1271.08 225" stroke="rgba(160, 70, 222, 1)" stroke-width="1.5"></path><path d="M1275.5 78.5L1393.96 -54.13" stroke="rgba(160, 70, 222, 1)" stroke-width="1.5"></path><path d="M1275.5 78.5L1454.83 42.36" stroke="rgba(160, 70, 222, 1)" stroke-width="1.5"></path><path d="M1271.08 225L1271.08 225" stroke="rgba(160, 70, 222, 1)" stroke-width="1.5"></path><path d="M1271.08 225L1274.43 378.75" stroke="rgba(160, 70, 222, 1)" stroke-width="1.5"></path><path d="M1271.08 225L1094.55 226.77" stroke="rgba(160, 70, 222, 1)" stroke-width="1.5"></path><path d="M1271.08 225L1462.26 202.55" stroke="rgba(160, 70, 222, 1)" stroke-width="1.5"></path><path d="M1271.08 225L1113.73 360.11" stroke="rgba(160, 70, 222, 1)" stroke-width="1.5"></path><path d="M1271.08 225L1459.45 392.64" stroke="rgba(160, 70, 222, 1)" stroke-width="1.5"></path><path d="M1274.43 378.75L1274.43 378.75" stroke="rgba(160, 70, 222, 1)" stroke-width="1.5"></path><path d="M1274.43 378.75L1277.27 528.6" stroke="rgba(160, 70, 222, 1)" stroke-width="1.5"></path><path d="M1274.43 378.75L1113.73 360.11" stroke="rgba(160, 70, 222, 1)" stroke-width="1.5"></path><path d="M1274.43 378.75L1409.17 499.23" stroke="rgba(160, 70, 222, 1)" stroke-width="1.5"></path><path d="M1274.43 378.75L1459.45 392.64" stroke="rgba(160, 70, 222, 1)" stroke-width="1.5"></path><path d="M1277.27 528.6L1277.27 528.6" stroke="rgba(160, 70, 222, 1)" stroke-width="1.5"></path><path d="M1277.27 528.6L1409.17 499.23" stroke="rgba(160, 70, 222, 1)" stroke-width="1.5"></path><path d="M1277.27 528.6L1257.48 666.36" stroke="rgba(160, 70, 222, 1)" stroke-width="1.5"></path><path d="M1257.48 666.36L1257.48 666.36" stroke="rgba(160, 70, 222, 1)" stroke-width="1.5"></path><path d="M1257.48 666.36L1410 653.5" stroke="rgba(160, 70, 222, 1)" stroke-width="1.5"></path><path d="M1257.48 666.36L1131.9 498.32" stroke="rgba(160, 70, 222, 1)" stroke-width="1.5"></path><path d="M1393.96 -54.13L1393.96 -54.13" stroke="rgba(160, 70, 222, 1)" stroke-width="1.5"></path><path d="M1393.96 -54.13L1454.83 42.36" stroke="rgba(160, 70, 222, 1)" stroke-width="1.5"></path><path d="M1393.96 -54.13L1550.67 -62.02" stroke="rgba(160, 70, 222, 1)" stroke-width="1.5"></path><path d="M1393.96 -54.13L1572.42 41.03" stroke="rgba(160, 70, 222, 1)" stroke-width="1.5"></path><path d="M1454.83 42.36L1454.83 42.36" stroke="rgba(160, 70, 222, 1)" stroke-width="1.5"></path><path d="M1454.83 42.36L1572.42 41.03" stroke="rgba(160, 70, 222, 1)" stroke-width="1.5"></path><path d="M1462.26 202.55L1462.26 202.55" stroke="rgba(160, 70, 222, 1)" stroke-width="1.5"></path><path d="M1462.26 202.55L1572.2 222.3" stroke="rgba(160, 70, 222, 1)" stroke-width="1.5"></path><path d="M1462.26 202.55L1454.83 42.36" stroke="rgba(160, 70, 222, 1)" stroke-width="1.5"></path><path d="M1459.45 392.64L1459.45 392.64" stroke="rgba(160, 70, 222, 1)" stroke-width="1.5"></path><path d="M1459.45 392.64L1551.27 339.2" stroke="rgba(160, 70, 222, 1)" stroke-width="1.5"></path><path d="M1459.45 392.64L1409.17 499.23" stroke="rgba(160, 70, 222, 1)" stroke-width="1.5"></path><path d="M1459.45 392.64L1462.26 202.55" stroke="rgba(160, 70, 222, 1)" stroke-width="1.5"></path><path d="M1409.17 499.23L1409.17 499.23" stroke="rgba(160, 70, 222, 1)" stroke-width="1.5"></path><path d="M1410 653.5L1410 653.5" stroke="rgba(160, 70, 222, 1)" stroke-width="1.5"></path><path d="M1410 653.5L1409.17 499.23" stroke="rgba(160, 70, 222, 1)" stroke-width="1.5"></path><path d="M1410 653.5L1572.02 639.07" stroke="rgba(160, 70, 222, 1)" stroke-width="1.5"></path><path d="M1410 653.5L1277.27 528.6" stroke="rgba(160, 70, 222, 1)" stroke-width="1.5"></path><path d="M1550.67 -62.02L1550.67 -62.02" stroke="rgba(160, 70, 222, 1)" stroke-width="1.5"></path><path d="M1550.67 -62.02L1572.42 41.03" stroke="rgba(160, 70, 222, 1)" stroke-width="1.5"></path><path d="M1550.67 -62.02L1454.83 42.36" stroke="rgba(160, 70, 222, 1)" stroke-width="1.5"></path><path d="M1572.42 41.03L1572.42 41.03" stroke="rgba(160, 70, 222, 1)" stroke-width="1.5"></path><path d="M1572.42 41.03L1572.2 222.3" stroke="rgba(160, 70, 222, 1)" stroke-width="1.5"></path><path d="M1572.2 222.3L1572.2 222.3" stroke="rgba(160, 70, 222, 1)" stroke-width="1.5"></path><path d="M1572.2 222.3L1551.27 339.2" stroke="rgba(160, 70, 222, 1)" stroke-width="1.5"></path><path d="M1572.2 222.3L1459.45 392.64" stroke="rgba(160, 70, 222, 1)" stroke-width="1.5"></path><path d="M1572.2 222.3L1454.83 42.36" stroke="rgba(160, 70, 222, 1)" stroke-width="1.5"></path><path d="M1551.27 339.2L1551.27 339.2" stroke="rgba(160, 70, 222, 1)" stroke-width="1.5"></path><path d="M1551.27 339.2L1462.26 202.55" stroke="rgba(160, 70, 222, 1)" stroke-width="1.5"></path><path d="M1551.27 339.2L1409.17 499.23" stroke="rgba(160, 70, 222, 1)" stroke-width="1.5"></path><path d="M1551.27 339.2L1274.43 378.75" stroke="rgba(160, 70, 222, 1)" stroke-width="1.5"></path><path d="M1551.27 339.2L1572.42 41.03" stroke="rgba(160, 70, 222, 1)" stroke-width="1.5"></path><path d="M1572.02 639.07L1572.02 639.07" stroke="rgba(160, 70, 222, 1)" stroke-width="1.5"></path><path d="M1572.02 639.07L1409.17 499.23" stroke="rgba(160, 70, 222, 1)" stroke-width="1.5"></path><path d="M1572.02 639.07L1459.45 392.64" stroke="rgba(160, 70, 222, 1)" stroke-width="1.5"></path><path d="M1572.02 639.07L1551.27 339.2" stroke="rgba(160, 70, 222, 1)" stroke-width="1.5"></path><circle r="5" cx="-37.7" cy="379.66" fill="rgba(160, 70, 222, 1)"></circle><circle r="5" cx="-77.08" cy="500.8" fill="rgba(160, 70, 222, 1)"></circle><circle r="5" cx="89.71" cy="348.82" fill="rgba(160, 70, 222, 1)"></circle><circle r="5" cx="89.55" cy="711.02" fill="rgba(160, 70, 222, 1)"></circle><circle r="5" cx="192.63" cy="392.32" fill="rgba(160, 70, 222, 1)"></circle><circle r="5" cx="235.33" cy="515.71" fill="rgba(160, 70, 222, 1)"></circle><circle r="5" cx="227.36" cy="700.69" fill="rgba(160, 70, 222, 1)"></circle><circle r="5" cx="409.69" cy="349.99" fill="rgba(160, 70, 222, 1)"></circle><circle r="5" cx="392.19" cy="700.59" fill="rgba(160, 70, 222, 1)"></circle><circle r="5" cx="558.74" cy="364.87" fill="rgba(160, 70, 222, 1)"></circle><circle r="5" cx="499.65" cy="562.4" fill="rgba(160, 70, 222, 1)"></circle><circle r="5" cx="669.48" cy="226.77" fill="rgba(160, 70, 222, 1)"></circle><circle r="5" cx="645.43" cy="348.78" fill="rgba(160, 70, 222, 1)"></circle><circle r="5" cx="703.01" cy="489.93" fill="rgba(160, 70, 222, 1)"></circle><circle r="5" cx="650.54" cy="698.65" fill="rgba(160, 70, 222, 1)"></circle><circle r="5" cx="841.65" cy="217.89" fill="rgba(160, 70, 222, 1)"></circle><circle r="5" cx="829.81" cy="396.12" fill="rgba(160, 70, 222, 1)"></circle><circle r="5" cx="800.63" cy="548.32" fill="rgba(160, 70, 222, 1)"></circle><circle r="5" cx="977.07" cy="-71.36" fill="rgba(160, 70, 222, 1)"></circle><circle r="5" cx="1011.31" cy="112.45" fill="rgba(160, 70, 222, 1)"></circle><circle r="5" cx="1012.1" cy="233.04" fill="rgba(160, 70, 222, 1)"></circle><circle r="5" cx="997.59" cy="351.5" fill="rgba(160, 70, 222, 1)"></circle><circle r="5" cx="966.36" cy="534.42" fill="rgba(160, 70, 222, 1)"></circle><circle r="5" cx="1008.74" cy="685.08" fill="rgba(160, 70, 222, 1)"></circle><circle r="5" cx="1087.87" cy="-40.35" fill="rgba(160, 70, 222, 1)"></circle><circle r="5" cx="1094.55" cy="226.77" fill="rgba(160, 70, 222, 1)"></circle><circle r="5" cx="1113.73" cy="360.11" fill="rgba(160, 70, 222, 1)"></circle><circle r="5" cx="1131.9" cy="498.32" fill="rgba(160, 70, 222, 1)"></circle><circle r="5" cx="1288.03" cy="-49.92" fill="rgba(160, 70, 222, 1)"></circle><circle r="5" cx="1275.5" cy="78.5" fill="rgba(160, 70, 222, 1)"></circle><circle r="5" cx="1271.08" cy="225" fill="rgba(160, 70, 222, 1)"></circle><circle r="5" cx="1274.43" cy="378.75" fill="rgba(160, 70, 222, 1)"></circle><circle r="5" cx="1277.27" cy="528.6" fill="rgba(160, 70, 222, 1)"></circle><circle r="5" cx="1257.48" cy="666.36" fill="rgba(160, 70, 222, 1)"></circle><circle r="5" cx="1393.96" cy="-54.13" fill="rgba(160, 70, 222, 1)"></circle><circle r="5" cx="1454.83" cy="42.36" fill="rgba(160, 70, 222, 1)"></circle><circle r="5" cx="1462.26" cy="202.55" fill="rgba(160, 70, 222, 1)"></circle><circle r="5" cx="1459.45" cy="392.64" fill="rgba(160, 70, 222, 1)"></circle><circle r="5" cx="1409.17" cy="499.23" fill="rgba(160, 70, 222, 1)"></circle><circle r="5" cx="1410" cy="653.5" fill="rgba(160, 70, 222, 1)"></circle><circle r="5" cx="1550.67" cy="-62.02" fill="rgba(160, 70, 222, 1)"></circle><circle r="5" cx="1572.42" cy="41.03" fill="rgba(160, 70, 222, 1)"></circle><circle r="5" cx="1572.2" cy="222.3" fill="rgba(160, 70, 222, 1)"></circle><circle r="5" cx="1551.27" cy="339.2" fill="rgba(160, 70, 222, 1)"></circle><circle r="5" cx="1572.02" cy="639.07" fill="rgba(160, 70, 222, 1)"></circle><path d="M205.92 539.37L205.92 539.37" stroke="hsl(275.6, 58.7%, 67%)" stroke-width="1.5"></path><path d="M205.92 539.37L94.23 543.47" stroke="hsl(275.6, 58.7%, 67%)" stroke-width="1.5"></path><path d="M205.92 539.37L257.76 659.55" stroke="hsl(275.6, 58.7%, 67%)" stroke-width="1.5"></path><path d="M205.92 539.37L361.83 524" stroke="hsl(275.6, 58.7%, 67%)" stroke-width="1.5"></path><path d="M257.76 659.55L257.76 659.55" stroke="hsl(275.6, 58.7%, 67%)" stroke-width="1.5"></path><path d="M257.76 659.55L372.01 660.04" stroke="hsl(275.6, 58.7%, 67%)" stroke-width="1.5"></path><path d="M257.76 659.55L361.83 524" stroke="hsl(275.6, 58.7%, 67%)" stroke-width="1.5"></path><path d="M257.76 659.55L79.85 694.29" stroke="hsl(275.6, 58.7%, 67%)" stroke-width="1.5"></path><path d="M551.5 704.17L551.5 704.17" stroke="hsl(275.6, 58.7%, 67%)" stroke-width="1.5"></path><path d="M551.5 704.17L650.95 677.57" stroke="hsl(275.6, 58.7%, 67%)" stroke-width="1.5"></path><path d="M551.5 704.17L372.01 660.04" stroke="hsl(275.6, 58.7%, 67%)" stroke-width="1.5"></path><path d="M946.58 556.33L946.58 556.33" stroke="hsl(275.6, 58.7%, 67%)" stroke-width="1.5"></path><path d="M946.58 556.33L955.98 698.23" stroke="hsl(275.6, 58.7%, 67%)" stroke-width="1.5"></path><path d="M946.58 556.33L1099.46 526.84" stroke="hsl(275.6, 58.7%, 67%)" stroke-width="1.5"></path><path d="M955.98 698.23L955.98 698.23" stroke="hsl(275.6, 58.7%, 67%)" stroke-width="1.5"></path><path d="M955.98 698.23L857.97 692.07" stroke="hsl(275.6, 58.7%, 67%)" stroke-width="1.5"></path><path d="M1250.23 385.87L1250.23 385.87" stroke="hsl(275.6, 58.7%, 67%)" stroke-width="1.5"></path><path d="M1250.23 385.87L1137.82 412.27" stroke="hsl(275.6, 58.7%, 67%)" stroke-width="1.5"></path><path d="M1250.23 385.87L1246.55 233.85" stroke="hsl(275.6, 58.7%, 67%)" stroke-width="1.5"></path><path d="M1294.56 709.78L1294.56 709.78" stroke="hsl(275.6, 58.7%, 67%)" stroke-width="1.5"></path><path d="M1294.56 709.78L1392.5 661.91" stroke="hsl(275.6, 58.7%, 67%)" stroke-width="1.5"></path><path d="M1294.56 709.78L1129.93 678.88" stroke="hsl(275.6, 58.7%, 67%)" stroke-width="1.5"></path><path d="M1294.56 709.78L1286.13 537.27" stroke="hsl(275.6, 58.7%, 67%)" stroke-width="1.5"></path><path d="M1294.56 709.78L1410.91 521.45" stroke="hsl(275.6, 58.7%, 67%)" stroke-width="1.5"></path><path d="M1414.02 -53.7L1414.02 -53.7" stroke="hsl(275.6, 58.7%, 67%)" stroke-width="1.5"></path><path d="M1414.02 -53.7L1439.64 92.54" stroke="hsl(275.6, 58.7%, 67%)" stroke-width="1.5"></path><path d="M1414.02 -53.7L1272.32 -103.65" stroke="hsl(275.6, 58.7%, 67%)" stroke-width="1.5"></path><path d="M1594.02 498.56L1594.02 498.56" stroke="hsl(275.6, 58.7%, 67%)" stroke-width="1.5"></path><path d="M1594.02 498.56L1578.03 372.52" stroke="hsl(275.6, 58.7%, 67%)" stroke-width="1.5"></path><path d="M1594.02 498.56L1554.88 654.01" stroke="hsl(275.6, 58.7%, 67%)" stroke-width="1.5"></path><path d="M1594.02 498.56L1410.91 521.45" stroke="hsl(275.6, 58.7%, 67%)" stroke-width="1.5"></path><path d="M1594.02 498.56L1392.5 661.91" stroke="hsl(275.6, 58.7%, 67%)" stroke-width="1.5"></path><path d="M-90.56 527.91L-90.56 527.91" stroke="hsl(275.6, 58.7%, 67%)" stroke-width="1.5"></path><path d="M-90.56 527.91L94.23 543.47" stroke="hsl(275.6, 58.7%, 67%)" stroke-width="1.5"></path><path d="M-90.56 527.91L79.85 694.29" stroke="hsl(275.6, 58.7%, 67%)" stroke-width="1.5"></path><path d="M-90.56 527.91L205.92 539.37" stroke="hsl(275.6, 58.7%, 67%)" stroke-width="1.5"></path><path d="M-90.56 527.91L257.76 659.55" stroke="hsl(275.6, 58.7%, 67%)" stroke-width="1.5"></path><path d="M-90.56 527.91L361.83 524" stroke="hsl(275.6, 58.7%, 67%)" stroke-width="1.5"></path><path d="M94.23 543.47L94.23 543.47" stroke="hsl(275.6, 58.7%, 67%)" stroke-width="1.5"></path><path d="M94.23 543.47L79.85 694.29" stroke="hsl(275.6, 58.7%, 67%)" stroke-width="1.5"></path><path d="M79.85 694.29L79.85 694.29" stroke="hsl(275.6, 58.7%, 67%)" stroke-width="1.5"></path><path d="M361.83 524L361.83 524" stroke="hsl(275.6, 58.7%, 67%)" stroke-width="1.5"></path><path d="M361.83 524L488.12 508.1" stroke="hsl(275.6, 58.7%, 67%)" stroke-width="1.5"></path><path d="M361.83 524L372.01 660.04" stroke="hsl(275.6, 58.7%, 67%)" stroke-width="1.5"></path><path d="M372.01 660.04L372.01 660.04" stroke="hsl(275.6, 58.7%, 67%)" stroke-width="1.5"></path><path d="M372.01 660.04L488.12 508.1" stroke="hsl(275.6, 58.7%, 67%)" stroke-width="1.5"></path><path d="M372.01 660.04L205.92 539.37" stroke="hsl(275.6, 58.7%, 67%)" stroke-width="1.5"></path><path d="M372.01 660.04L650.95 677.57" stroke="hsl(275.6, 58.7%, 67%)" stroke-width="1.5"></path><path d="M488.12 508.1L488.12 508.1" stroke="hsl(275.6, 58.7%, 67%)" stroke-width="1.5"></path><path d="M488.12 508.1L551.5 704.17" stroke="hsl(275.6, 58.7%, 67%)" stroke-width="1.5"></path><path d="M488.12 508.1L650.95 677.57" stroke="hsl(275.6, 58.7%, 67%)" stroke-width="1.5"></path><path d="M650.95 677.57L650.95 677.57" stroke="hsl(275.6, 58.7%, 67%)" stroke-width="1.5"></path><path d="M650.95 677.57L857.97 692.07" stroke="hsl(275.6, 58.7%, 67%)" stroke-width="1.5"></path><path d="M829.67 369.49L829.67 369.49" stroke="hsl(275.6, 58.7%, 67%)" stroke-width="1.5"></path><path d="M829.67 369.49L948.38 388.64" stroke="hsl(275.6, 58.7%, 67%)" stroke-width="1.5"></path><path d="M829.67 369.49L801.04 500.1" stroke="hsl(275.6, 58.7%, 67%)" stroke-width="1.5"></path><path d="M829.67 369.49L946.58 556.33" stroke="hsl(275.6, 58.7%, 67%)" stroke-width="1.5"></path><path d="M829.67 369.49L1137.82 412.27" stroke="hsl(275.6, 58.7%, 67%)" stroke-width="1.5"></path><path d="M801.04 500.1L801.04 500.1" stroke="hsl(275.6, 58.7%, 67%)" stroke-width="1.5"></path><path d="M801.04 500.1L946.58 556.33" stroke="hsl(275.6, 58.7%, 67%)" stroke-width="1.5"></path><path d="M801.04 500.1L948.38 388.64" stroke="hsl(275.6, 58.7%, 67%)" stroke-width="1.5"></path><path d="M801.04 500.1L857.97 692.07" stroke="hsl(275.6, 58.7%, 67%)" stroke-width="1.5"></path><path d="M801.04 500.1L650.95 677.57" stroke="hsl(275.6, 58.7%, 67%)" stroke-width="1.5"></path><path d="M801.04 500.1L955.98 698.23" stroke="hsl(275.6, 58.7%, 67%)" stroke-width="1.5"></path><path d="M857.97 692.07L857.97 692.07" stroke="hsl(275.6, 58.7%, 67%)" stroke-width="1.5"></path><path d="M857.97 692.07L946.58 556.33" stroke="hsl(275.6, 58.7%, 67%)" stroke-width="1.5"></path><path d="M857.97 692.07L1129.93 678.88" stroke="hsl(275.6, 58.7%, 67%)" stroke-width="1.5"></path><path d="M948.38 388.64L948.38 388.64" stroke="hsl(275.6, 58.7%, 67%)" stroke-width="1.5"></path><path d="M1155.14 201.48L1155.14 201.48" stroke="hsl(275.6, 58.7%, 67%)" stroke-width="1.5"></path><path d="M1155.14 201.48L1246.55 233.85" stroke="hsl(275.6, 58.7%, 67%)" stroke-width="1.5"></path><path d="M1155.14 201.48L1288.15 52.79" stroke="hsl(275.6, 58.7%, 67%)" stroke-width="1.5"></path><path d="M1155.14 201.48L1250.23 385.87" stroke="hsl(275.6, 58.7%, 67%)" stroke-width="1.5"></path><path d="M1155.14 201.48L1137.82 412.27" stroke="hsl(275.6, 58.7%, 67%)" stroke-width="1.5"></path><path d="M1155.14 201.48L1401.06 209.58" stroke="hsl(275.6, 58.7%, 67%)" stroke-width="1.5"></path><path d="M1155.14 201.48L948.38 388.64" stroke="hsl(275.6, 58.7%, 67%)" stroke-width="1.5"></path><path d="M1137.82 412.27L1137.82 412.27" stroke="hsl(275.6, 58.7%, 67%)" stroke-width="1.5"></path><path d="M1137.82 412.27L1099.46 526.84" stroke="hsl(275.6, 58.7%, 67%)" stroke-width="1.5"></path><path d="M1137.82 412.27L948.38 388.64" stroke="hsl(275.6, 58.7%, 67%)" stroke-width="1.5"></path><path d="M1137.82 412.27L1286.13 537.27" stroke="hsl(275.6, 58.7%, 67%)" stroke-width="1.5"></path><path d="M1137.82 412.27L1246.55 233.85" stroke="hsl(275.6, 58.7%, 67%)" stroke-width="1.5"></path><path d="M1099.46 526.84L1099.46 526.84" stroke="hsl(275.6, 58.7%, 67%)" stroke-width="1.5"></path><path d="M1099.46 526.84L1129.93 678.88" stroke="hsl(275.6, 58.7%, 67%)" stroke-width="1.5"></path><path d="M1129.93 678.88L1129.93 678.88" stroke="hsl(275.6, 58.7%, 67%)" stroke-width="1.5"></path><path d="M1129.93 678.88L955.98 698.23" stroke="hsl(275.6, 58.7%, 67%)" stroke-width="1.5"></path><path d="M1129.93 678.88L1286.13 537.27" stroke="hsl(275.6, 58.7%, 67%)" stroke-width="1.5"></path><path d="M1129.93 678.88L946.58 556.33" stroke="hsl(275.6, 58.7%, 67%)" stroke-width="1.5"></path><path d="M1129.93 678.88L1392.5 661.91" stroke="hsl(275.6, 58.7%, 67%)" stroke-width="1.5"></path><path d="M1272.32 -103.65L1272.32 -103.65" stroke="hsl(275.6, 58.7%, 67%)" stroke-width="1.5"></path><path d="M1272.32 -103.65L1288.15 52.79" stroke="hsl(275.6, 58.7%, 67%)" stroke-width="1.5"></path><path d="M1272.32 -103.65L1439.64 92.54" stroke="hsl(275.6, 58.7%, 67%)" stroke-width="1.5"></path><path d="M1272.32 -103.65L1579.71 -101.37" stroke="hsl(275.6, 58.7%, 67%)" stroke-width="1.5"></path><path d="M1272.32 -103.65L1155.14 201.48" stroke="hsl(275.6, 58.7%, 67%)" stroke-width="1.5"></path><path d="M1288.15 52.79L1288.15 52.79" stroke="hsl(275.6, 58.7%, 67%)" stroke-width="1.5"></path><path d="M1288.15 52.79L1439.64 92.54" stroke="hsl(275.6, 58.7%, 67%)" stroke-width="1.5"></path><path d="M1288.15 52.79L1414.02 -53.7" stroke="hsl(275.6, 58.7%, 67%)" stroke-width="1.5"></path><path d="M1288.15 52.79L1246.55 233.85" stroke="hsl(275.6, 58.7%, 67%)" stroke-width="1.5"></path><path d="M1246.55 233.85L1246.55 233.85" stroke="hsl(275.6, 58.7%, 67%)" stroke-width="1.5"></path><path d="M1286.13 537.27L1286.13 537.27" stroke="hsl(275.6, 58.7%, 67%)" stroke-width="1.5"></path><path d="M1286.13 537.27L1410.91 521.45" stroke="hsl(275.6, 58.7%, 67%)" stroke-width="1.5"></path><path d="M1286.13 537.27L1250.23 385.87" stroke="hsl(275.6, 58.7%, 67%)" stroke-width="1.5"></path><path d="M1439.64 92.54L1439.64 92.54" stroke="hsl(275.6, 58.7%, 67%)" stroke-width="1.5"></path><path d="M1439.64 92.54L1401.06 209.58" stroke="hsl(275.6, 58.7%, 67%)" stroke-width="1.5"></path><path d="M1439.64 92.54L1582.77 56.98" stroke="hsl(275.6, 58.7%, 67%)" stroke-width="1.5"></path><path d="M1401.06 209.58L1401.06 209.58" stroke="hsl(275.6, 58.7%, 67%)" stroke-width="1.5"></path><path d="M1401.06 209.58L1246.55 233.85" stroke="hsl(275.6, 58.7%, 67%)" stroke-width="1.5"></path><path d="M1401.06 209.58L1572.01 198.19" stroke="hsl(275.6, 58.7%, 67%)" stroke-width="1.5"></path><path d="M1410.91 521.45L1410.91 521.45" stroke="hsl(275.6, 58.7%, 67%)" stroke-width="1.5"></path><path d="M1410.91 521.45L1392.5 661.91" stroke="hsl(275.6, 58.7%, 67%)" stroke-width="1.5"></path><path d="M1410.91 521.45L1554.88 654.01" stroke="hsl(275.6, 58.7%, 67%)" stroke-width="1.5"></path><path d="M1392.5 661.91L1392.5 661.91" stroke="hsl(275.6, 58.7%, 67%)" stroke-width="1.5"></path><path d="M1392.5 661.91L1554.88 654.01" stroke="hsl(275.6, 58.7%, 67%)" stroke-width="1.5"></path><path d="M1392.5 661.91L1286.13 537.27" stroke="hsl(275.6, 58.7%, 67%)" stroke-width="1.5"></path><path d="M1579.71 -101.37L1579.71 -101.37" stroke="hsl(275.6, 58.7%, 67%)" stroke-width="1.5"></path><path d="M1579.71 -101.37L1582.77 56.98" stroke="hsl(275.6, 58.7%, 67%)" stroke-width="1.5"></path><path d="M1579.71 -101.37L1414.02 -53.7" stroke="hsl(275.6, 58.7%, 67%)" stroke-width="1.5"></path><path d="M1579.71 -101.37L1439.64 92.54" stroke="hsl(275.6, 58.7%, 67%)" stroke-width="1.5"></path><path d="M1579.71 -101.37L1572.01 198.19" stroke="hsl(275.6, 58.7%, 67%)" stroke-width="1.5"></path><path d="M1582.77 56.98L1582.77 56.98" stroke="hsl(275.6, 58.7%, 67%)" stroke-width="1.5"></path><path d="M1582.77 56.98L1572.01 198.19" stroke="hsl(275.6, 58.7%, 67%)" stroke-width="1.5"></path><path d="M1582.77 56.98L1414.02 -53.7" stroke="hsl(275.6, 58.7%, 67%)" stroke-width="1.5"></path><path d="M1582.77 56.98L1401.06 209.58" stroke="hsl(275.6, 58.7%, 67%)" stroke-width="1.5"></path><path d="M1582.77 56.98L1288.15 52.79" stroke="hsl(275.6, 58.7%, 67%)" stroke-width="1.5"></path><path d="M1572.01 198.19L1572.01 198.19" stroke="hsl(275.6, 58.7%, 67%)" stroke-width="1.5"></path><path d="M1572.01 198.19L1439.64 92.54" stroke="hsl(275.6, 58.7%, 67%)" stroke-width="1.5"></path><path d="M1572.01 198.19L1578.03 372.52" stroke="hsl(275.6, 58.7%, 67%)" stroke-width="1.5"></path><path d="M1572.01 198.19L1414.02 -53.7" stroke="hsl(275.6, 58.7%, 67%)" stroke-width="1.5"></path><path d="M1578.03 372.52L1578.03 372.52" stroke="hsl(275.6, 58.7%, 67%)" stroke-width="1.5"></path><path d="M1578.03 372.52L1410.91 521.45" stroke="hsl(275.6, 58.7%, 67%)" stroke-width="1.5"></path><path d="M1578.03 372.52L1401.06 209.58" stroke="hsl(275.6, 58.7%, 67%)" stroke-width="1.5"></path><path d="M1578.03 372.52L1554.88 654.01" stroke="hsl(275.6, 58.7%, 67%)" stroke-width="1.5"></path><path d="M1554.88 654.01L1554.88 654.01" stroke="hsl(275.6, 58.7%, 67%)" stroke-width="1.5"></path><circle r="25" cx="205.92" cy="539.37" fill="url(#SvgjsRadialGradient1009)"></circle><circle r="25" cx="257.76" cy="659.55" fill="url(#SvgjsRadialGradient1009)"></circle><circle r="25" cx="551.5" cy="704.17" fill="url(#SvgjsRadialGradient1009)"></circle><circle r="25" cx="946.58" cy="556.33" fill="url(#SvgjsRadialGradient1009)"></circle><circle r="25" cx="955.98" cy="698.23" fill="url(#SvgjsRadialGradient1009)"></circle><circle r="25" cx="1250.23" cy="385.87" fill="url(#SvgjsRadialGradient1009)"></circle><circle r="25" cx="1294.56" cy="709.78" fill="url(#SvgjsRadialGradient1009)"></circle><circle r="25" cx="1414.02" cy="-53.7" fill="url(#SvgjsRadialGradient1009)"></circle><circle r="25" cx="1594.02" cy="498.56" fill="url(#SvgjsRadialGradient1009)"></circle><circle r="5" cx="-90.56" cy="527.91" fill="#c89de6"></circle><circle r="5" cx="94.23" cy="543.47" fill="#c89de6"></circle><circle r="5" cx="79.85" cy="694.29" fill="#c89de6"></circle><circle r="5" cx="361.83" cy="524" fill="#c89de6"></circle><circle r="5" cx="372.01" cy="660.04" fill="#c89de6"></circle><circle r="5" cx="488.12" cy="508.1" fill="#c89de6"></circle><circle r="5" cx="650.95" cy="677.57" fill="#c89de6"></circle><circle r="5" cx="829.67" cy="369.49" fill="#c89de6"></circle><circle r="5" cx="801.04" cy="500.1" fill="#c89de6"></circle><circle r="5" cx="857.97" cy="692.07" fill="#c89de6"></circle><circle r="5" cx="948.38" cy="388.64" fill="#c89de6"></circle><circle r="5" cx="1155.14" cy="201.48" fill="#c89de6"></circle><circle r="5" cx="1137.82" cy="412.27" fill="#c89de6"></circle><circle r="5" cx="1099.46" cy="526.84" fill="#c89de6"></circle><circle r="5" cx="1129.93" cy="678.88" fill="#c89de6"></circle><circle r="5" cx="1272.32" cy="-103.65" fill="#c89de6"></circle><circle r="5" cx="1288.15" cy="52.79" fill="#c89de6"></circle><circle r="5" cx="1246.55" cy="233.85" fill="#c89de6"></circle><circle r="5" cx="1286.13" cy="537.27" fill="#c89de6"></circle><circle r="5" cx="1439.64" cy="92.54" fill="#c89de6"></circle><circle r="5" cx="1401.06" cy="209.58" fill="#c89de6"></circle><circle r="5" cx="1410.91" cy="521.45" fill="#c89de6"></circle><circle r="5" cx="1392.5" cy="661.91" fill="#c89de6"></circle><circle r="5" cx="1579.71" cy="-101.37" fill="#c89de6"></circle><circle r="5" cx="1582.77" cy="56.98" fill="#c89de6"></circle><circle r="5" cx="1572.01" cy="198.19" fill="#c89de6"></circle><circle r="5" cx="1578.03" cy="372.52" fill="#c89de6"></circle><circle r="5" cx="1554.88" cy="654.01" fill="#c89de6"></circle></g><defs><mask id="SvgjsMask1008"><rect width="1440" height="560" fill="#ffffff"></rect></mask><radialGradient id="SvgjsRadialGradient1009"><stop stop-color="#ffffff" offset="0.1"></stop><stop stop-color="rgba(145, 59, 204, 1)" offset="0.2"></stop><stop stop-color="rgba(145, 59, 204, 0)" offset="1"></stop></radialGradient></defs></svg>